<?xml version="1.0" encoding="UTF-8"?>
<svg id="Layer_1" data-name="Layer 1" xmlns="http://www.w3.org/2000/svg" version="1.1" viewBox="0 0 1920 1080">
  <defs>
    <style>
      .cls-1 {
        fill: #000;
      }

      .cls-1, .cls-2 {
        stroke-width: 0px;
      }

      .cls-2 {
        fill: #0062ff;
      }
    </style>
  </defs>
  <path class="cls-1" d="M745.03,669.92v-259.83h-22.64l-179.28,225.68h11.88v-225.68h-27.1v259.83h22.64l178.91-225.68h-11.88v225.68h27.47Z"/>
  <path class="cls-1" d="M790.85,669.92v-259.83h27.47v259.83h-27.47Z"/>
  <path class="cls-1" d="M1101.68,669.92v-259.83h27.47v259.83h-27.47Z"/>
  <path class="cls-1" d="M1392.11,669.92v-259.83h-22.64l-179.28,225.68h11.88v-225.68h-27.1v259.83h22.64l178.91-225.68h-11.88v225.68h27.47Z"/>
  <path class="cls-2" d="M855.38,410.08h159.07c29.03,0,52.6,23.57,52.6,52.6h0c0,29.03-23.57,52.6-52.6,52.6h-159.07v-105.21h0Z"/>
  <path class="cls-2" d="M855.38,535.94h144.68c36.97,0,66.99,30.02,66.99,66.99h0c0,36.97-30.02,66.99-66.99,66.99h-144.68v-133.98h0Z"/>
</svg>